<svg width="723" height="131" viewBox="0 0 723 131" fill="none" xmlns="http://www.w3.org/2000/svg">
<path d="M49.7801 130.306C77.5628 130.306 98.9614 108.909 98.9614 81.1248C98.9614 53.3435 77.5628 31.9448 49.7801 31.9448C21.9988 31.9448 0.600098 53.3435 0.600098 81.1248C0.600098 108.909 21.9988 130.306 49.7801 130.306ZM49.7801 99.9182C39.1708 99.9182 30.9894 91.7342 30.9894 81.1248C30.9894 70.5155 39.1708 62.3342 49.7801 62.3342C60.3894 62.3342 68.5721 70.5155 68.5721 81.1248C68.5721 91.7342 60.3894 99.9182 49.7801 99.9182ZM64.0761 33.4728H97.5214V0.0274939H64.0761V33.4728Z" fill="#231F20"/>
<path d="M337.852 92.8146C331.379 92.8146 326.614 87.8693 326.614 81.1253C326.614 74.3826 331.379 69.4373 337.852 69.4373C344.326 69.4373 349.091 74.3826 349.091 81.1253C349.091 87.8693 344.326 92.8146 337.852 92.8146ZM337.852 55.9519C323.556 55.9519 312.678 66.9199 312.678 81.1253C312.678 95.3319 323.556 106.301 337.852 106.301C352.148 106.301 363.027 95.3319 363.027 81.1253C363.027 66.9199 352.148 55.9519 337.852 55.9519Z" fill="#231F20"/>
<path d="M284.445 92.9037C278.061 92.9037 273.387 87.9596 273.387 81.1263C273.387 74.293 278.061 69.3476 284.445 69.3476C290.829 69.3476 295.504 74.293 295.504 81.1263C295.504 87.9596 290.829 92.9037 284.445 92.9037ZM284.985 55.9503C270.779 55.9503 259.9 65.661 259.9 82.8343V121.674H273.387V101.833C276.901 104.56 281.233 106.122 286.064 106.122C299.64 106.122 309.44 95.601 309.44 81.1263C309.44 66.5596 299.101 55.9503 284.985 55.9503" fill="#231F20"/>
<path d="M231.398 68.1786C237.381 68.1786 241.492 72.0826 241.549 76.4506H220.67C221.836 71.0346 226.061 68.1786 231.398 68.1786ZM232.028 55.9506C217.462 55.9506 206.942 66.5599 206.942 81.1253C206.942 96.0506 217.193 106.301 232.028 106.301C243.086 106.301 251.988 100.096 254.505 91.3746H240.03C238.501 93.0839 235.984 93.9839 231.938 93.9839C226.426 93.9839 222.349 90.8439 220.912 85.8906H255.764C256.213 83.5533 256.304 82.3839 256.304 81.1253C256.304 66.4706 246.233 55.9506 232.028 55.9506" fill="#231F20"/>
<path d="M386.853 76.1813C382.808 74.2933 379.481 72.8546 379.481 70.6066C379.481 68.8079 381.189 67.9093 382.988 67.9093C386.314 67.9093 387.393 70.5159 387.393 73.3946H400.609C400.609 62.6039 394.046 55.9519 383.257 55.9519C374.625 55.9519 366.624 60.8066 366.624 70.4266C366.624 79.8679 374.445 83.2839 380.56 85.8919C384.426 87.5999 387.393 88.7679 387.393 91.2866C387.393 93.6239 385.325 94.4319 383.077 94.4319C379.84 94.4319 378.221 91.8253 378.221 88.5893H365.274C365.274 99.3773 371.929 106.301 383.166 106.301C391.888 106.301 401.149 101.356 401.149 91.8253C401.149 83.0146 393.237 79.1479 386.853 76.1813Z" fill="#231F20"/>
<path d="M178.981 92.9039C172.597 92.9039 167.922 87.9599 167.922 81.1266C167.922 74.2933 172.597 69.3479 178.981 69.3479C185.365 69.3479 190.04 74.2933 190.04 81.1266C190.04 87.9599 185.365 92.9039 178.981 92.9039ZM190.04 60.4173C186.525 57.6919 182.193 56.1306 177.362 56.1306C163.786 56.1306 153.986 66.6506 153.986 81.1266C153.986 95.6919 164.325 106.301 178.441 106.301C192.648 106.301 203.526 96.5906 203.526 79.4173V40.5759H190.04V60.4173Z" fill="#231F20"/>
<path d="M621.879 46.9605H608.572V91.0165C608.572 100.186 613.787 105.402 622.958 105.402H632.848V91.9152H624.575C622.867 91.9152 621.879 90.9259 621.879 89.2179V70.3365H632.848V56.8499H621.879V46.9605Z" fill="#231F20"/>
<path d="M531.337 55.9515C527.517 55.9515 524.131 57.2609 521.448 59.5155V40.6675H507.961V105.401H521.448V75.3715C521.448 71.2355 523.247 68.6289 526.843 68.6289C529.989 68.6289 531.699 70.2475 532.596 74.0235L539.879 105.401H554.984L547.164 71.5955C544.467 60.0875 539.429 55.9515 531.337 55.9515Z" fill="#231F20"/>
<path d="M405.735 105.401H419.04V56.8507H405.735V105.401Z" fill="#231F20"/>
<path d="M659.46 92.8146C652.986 92.8146 648.221 87.8693 648.221 81.1253C648.221 74.3826 652.986 69.4373 659.46 69.4373C665.934 69.4373 670.698 74.3826 670.698 81.1253C670.698 87.8693 665.934 92.8146 659.46 92.8146ZM659.46 55.9519C645.165 55.9519 634.285 66.9199 634.285 81.1253C634.285 95.3319 645.165 106.301 659.46 106.301C673.756 106.301 684.634 95.3319 684.634 81.1253C684.634 66.9199 673.756 55.9519 659.46 55.9519Z" fill="#231F20"/>
<path d="M708.371 76.1813C704.326 74.2933 700.999 72.8546 700.999 70.6066C700.999 68.8079 702.708 67.9093 704.507 67.9093C707.832 67.9093 708.91 70.5159 708.91 73.3946H722.127C722.127 62.6039 715.564 55.9519 704.775 55.9519C696.143 55.9519 688.142 60.8066 688.142 70.4266C688.142 79.8679 695.964 83.2839 702.076 85.8919C705.944 87.5999 708.91 88.7679 708.91 91.2866C708.91 93.6239 706.843 94.4319 704.595 94.4319C701.359 94.4319 699.739 91.8253 699.739 88.5893H686.792C686.792 99.3773 693.446 106.301 704.684 106.301C713.406 106.301 722.667 101.356 722.667 91.8253C722.667 83.0146 714.755 79.1479 708.371 76.1813Z" fill="#231F20"/>
<path d="M579.35 92.8146C572.877 92.8146 568.112 87.8693 568.112 81.1253C568.112 74.3826 572.877 69.4373 579.35 69.4373C585.825 69.4373 590.589 74.3826 590.589 81.1253C590.589 87.8693 585.825 92.8146 579.35 92.8146ZM579.35 55.9519C565.054 55.9519 554.176 66.9199 554.176 81.1253C554.176 95.3319 565.054 106.301 579.35 106.301C593.646 106.301 604.525 95.3319 604.525 81.1253C604.525 66.9199 593.646 55.9519 579.35 55.9519Z" fill="#231F20"/>
<path d="M478.922 92.9037C472.538 92.9037 467.862 87.9596 467.862 81.1263C467.862 74.293 472.538 69.3476 478.922 69.3476C485.304 69.3476 489.978 74.293 489.978 81.1263C489.978 87.9596 485.304 92.9037 478.922 92.9037ZM479.46 55.9503C465.254 55.9503 454.376 65.661 454.376 82.8343V121.674H467.862V101.833C471.378 104.56 475.71 106.122 480.538 106.122C494.116 106.122 503.914 95.601 503.914 81.1263C503.914 66.5596 493.575 55.9503 479.46 55.9503" fill="#231F20"/>
<path d="M405.735 51.4561H419.04V37.9694H405.735V51.4561Z" fill="#231F20"/>
<path d="M439.271 46.9605H425.965V91.0165C425.965 100.186 431.18 105.402 440.351 105.402H450.241V91.9152H441.968C440.26 91.9152 439.271 90.9259 439.271 89.2179V70.3365H450.241V56.8499H439.271V46.9605Z" fill="#231F20"/>
</svg>
